<svg xmlns="http://www.w3.org/2000/svg" viewBox="0 0 512 512">
  <rect width="512" height="512" rx="110" fill="#0e1a14"/>
  <!-- Dumbbell handle (body) -->
  <rect x="166" y="194" width="180" height="124" rx="40" fill="#58cc02"/>
  <!-- Left plates -->
  <rect x="52" y="206" width="114" height="100" rx="24" fill="#ff9600" opacity="0.9"/>
  <!-- Right plates -->
  <rect x="346" y="206" width="114" height="100" rx="24" fill="#ff9600" opacity="0.9"/>
  <!-- Face -->
  <circle cx="196" cy="248" r="16" fill="#fff"/>
  <circle cx="316" cy="248" r="16" fill="#fff"/>
  <circle cx="196" cy="248" r="8" fill="#0e1a14"/>
  <circle cx="316" cy="248" r="8" fill="#0e1a14"/>
  <!-- Cheeks -->
  <circle cx="174" cy="268" r="10" fill="#fff" opacity="0.3"/>
  <circle cx="338" cy="268" r="10" fill="#fff" opacity="0.3"/>
  <!-- Smile -->
  <path d="M226 276 Q256 310 286 276" fill="none" stroke="#fff" stroke-width="10" stroke-linecap="round"/>
  <!-- Tongue -->
  <ellipse cx="256" cy="296" rx="12" ry="8" fill="#ff4b4b" opacity="0.7"/>
  <!-- Stars -->
  <path d="M128 130 l8-20 8 20-18-12 20 0z" fill="#ffd700" opacity="0.8"/>
  <path d="M384 130 l8-20 8 20-18-12 20 0z" fill="#ffd700" opacity="0.8"/>
  <circle cx="256" cy="120" r="12" fill="#1cb0f6" opacity="0.8"/>
</svg>
