<svg xmlns="http://www.w3.org/2000/svg" viewBox="0 0 512 512">
  <rect width="512" height="512" rx="110" fill="#0e1a14"/>
  <rect x="150" y="170" width="212" height="172" rx="46" fill="#5dd167"/>
  <rect x="60" y="190" width="100" height="132" rx="28" fill="#ff9600" opacity="0.95"/>
  <rect x="352" y="190" width="100" height="132" rx="28" fill="#ff9600" opacity="0.95"/>
  <circle cx="190" cy="244" r="18" fill="#fff"/>
  <circle cx="322" cy="244" r="18" fill="#fff"/>
  <circle cx="190" cy="244" r="8" fill="#0e1a14"/>
  <circle cx="322" cy="244" r="8" fill="#0e1a14"/>
  <circle cx="170" cy="268" r="12" fill="#fff" opacity="0.25"/>
  <circle cx="342" cy="268" r="12" fill="#fff" opacity="0.25"/>
  <path d="M216 272 Q256 316 296 272" fill="none" stroke="#fff" stroke-width="10" stroke-linecap="round"/>
  <ellipse cx="256" cy="296" rx="14" ry="9" fill="#ff4b4b" opacity="0.7"/>
  <path d="M120 120 l10-24 10 24-22-14 24 0z" fill="#ffd700" opacity="0.9"/>
  <path d="M392 120 l10-24 10 24-22-14 24 0z" fill="#ffd700" opacity="0.9"/>
  <circle cx="256" cy="108" r="14" fill="#1cb0f6" opacity="0.9"/>
</svg>
